<mxfile host="app.diagrams.net" modified="2023-12-30T10:14:00.363Z" agent="Mozilla/5.0 (Windows NT 10.0; Win64; x64) AppleWebKit/537.36 (KHTML, like Gecko) Chrome/120.0.0.0 Safari/537.36" etag="d2Rl9S6hozjvNeylxgcP" version="22.1.16" type="device">
  <diagram name="Page-1" id="PaxWZ2zZwZX4mNsY2yLK">
    <mxGraphModel dx="1373" dy="707" grid="1" gridSize="10" guides="1" tooltips="1" connect="1" arrows="1" fold="1" page="1" pageScale="1" pageWidth="850" pageHeight="1100" math="0" shadow="0">
      <root>
        <mxCell id="0" />
        <mxCell id="1" parent="0" />
        <mxCell id="22PM520ylwlOcXzsM1pa-8" value="" style="rounded=0;whiteSpace=wrap;html=1;" vertex="1" parent="1">
          <mxGeometry x="120" y="280" width="600" height="570" as="geometry" />
        </mxCell>
        <mxCell id="22PM520ylwlOcXzsM1pa-9" style="edgeStyle=orthogonalEdgeStyle;rounded=0;orthogonalLoop=1;jettySize=auto;html=1;exitX=0.5;exitY=1;exitDx=0;exitDy=0;" edge="1" parent="1" source="22PM520ylwlOcXzsM1pa-10" target="22PM520ylwlOcXzsM1pa-12">
          <mxGeometry relative="1" as="geometry" />
        </mxCell>
        <mxCell id="22PM520ylwlOcXzsM1pa-10" value="Events" style="rounded=1;whiteSpace=wrap;html=1;" vertex="1" parent="1">
          <mxGeometry x="195" y="100" width="120" height="60" as="geometry" />
        </mxCell>
        <mxCell id="22PM520ylwlOcXzsM1pa-11" style="edgeStyle=orthogonalEdgeStyle;rounded=0;orthogonalLoop=1;jettySize=auto;html=1;exitX=0.5;exitY=1;exitDx=0;exitDy=0;" edge="1" parent="1" source="22PM520ylwlOcXzsM1pa-12">
          <mxGeometry relative="1" as="geometry">
            <mxPoint x="405" y="320" as="targetPoint" />
            <Array as="points">
              <mxPoint x="255" y="295" />
              <mxPoint x="405" y="295" />
            </Array>
          </mxGeometry>
        </mxCell>
        <mxCell id="22PM520ylwlOcXzsM1pa-12" value="Kafka" style="rounded=1;whiteSpace=wrap;html=1;" vertex="1" parent="1">
          <mxGeometry x="195" y="190" width="120" height="60" as="geometry" />
        </mxCell>
        <mxCell id="22PM520ylwlOcXzsM1pa-13" value="Batch" style="rounded=1;whiteSpace=wrap;html=1;" vertex="1" parent="1">
          <mxGeometry x="515" y="100" width="120" height="60" as="geometry" />
        </mxCell>
        <mxCell id="22PM520ylwlOcXzsM1pa-14" style="edgeStyle=orthogonalEdgeStyle;rounded=0;orthogonalLoop=1;jettySize=auto;html=1;exitX=0.5;exitY=1;exitDx=0;exitDy=0;" edge="1" parent="1" source="22PM520ylwlOcXzsM1pa-13">
          <mxGeometry relative="1" as="geometry">
            <mxPoint x="435" y="320" as="targetPoint" />
            <Array as="points">
              <mxPoint x="585" y="290" />
              <mxPoint x="435" y="290" />
            </Array>
          </mxGeometry>
        </mxCell>
        <mxCell id="22PM520ylwlOcXzsM1pa-15" value="&#xa;&lt;span style=&quot;color: rgb(0, 0, 0); font-family: Helvetica; font-size: 12px; font-style: normal; font-variant-ligatures: normal; font-variant-caps: normal; font-weight: 400; letter-spacing: normal; orphans: 2; text-align: center; text-indent: 0px; text-transform: none; widows: 2; word-spacing: 0px; -webkit-text-stroke-width: 0px; background-color: rgb(251, 251, 251); text-decoration-thickness: initial; text-decoration-style: initial; text-decoration-color: initial; float: none; display: inline !important;&quot;&gt;Raw data&lt;/span&gt;&#xa;&#xa;" style="shape=cylinder3;whiteSpace=wrap;html=1;boundedLbl=1;backgroundOutline=1;size=15;" vertex="1" parent="1">
          <mxGeometry x="387.5" y="320" width="65" height="100" as="geometry" />
        </mxCell>
        <mxCell id="22PM520ylwlOcXzsM1pa-16" style="edgeStyle=orthogonalEdgeStyle;rounded=0;orthogonalLoop=1;jettySize=auto;html=1;exitX=0;exitY=0.5;exitDx=0;exitDy=0;exitPerimeter=0;entryX=0;entryY=0.5;entryDx=0;entryDy=0;entryPerimeter=0;" edge="1" parent="1" source="22PM520ylwlOcXzsM1pa-17" target="22PM520ylwlOcXzsM1pa-19">
          <mxGeometry relative="1" as="geometry">
            <mxPoint x="350" y="650" as="targetPoint" />
            <Array as="points">
              <mxPoint x="245" y="510" />
              <mxPoint x="245" y="640" />
            </Array>
          </mxGeometry>
        </mxCell>
        <mxCell id="22PM520ylwlOcXzsM1pa-17" value="Staging data" style="shape=cylinder3;whiteSpace=wrap;html=1;boundedLbl=1;backgroundOutline=1;size=15;" vertex="1" parent="1">
          <mxGeometry x="382.5" y="460" width="70" height="100" as="geometry" />
        </mxCell>
        <mxCell id="22PM520ylwlOcXzsM1pa-18" style="edgeStyle=orthogonalEdgeStyle;rounded=0;orthogonalLoop=1;jettySize=auto;html=1;exitX=1;exitY=0.5;exitDx=0;exitDy=0;exitPerimeter=0;" edge="1" parent="1" source="22PM520ylwlOcXzsM1pa-19" target="22PM520ylwlOcXzsM1pa-24">
          <mxGeometry relative="1" as="geometry">
            <mxPoint x="470" y="780" as="targetPoint" />
            <Array as="points">
              <mxPoint x="595" y="640" />
              <mxPoint x="595" y="780" />
            </Array>
          </mxGeometry>
        </mxCell>
        <mxCell id="22PM520ylwlOcXzsM1pa-19" value="Fact/curated data" style="shape=cylinder3;whiteSpace=wrap;html=1;boundedLbl=1;backgroundOutline=1;size=15;" vertex="1" parent="1">
          <mxGeometry x="385" y="590" width="75" height="100" as="geometry" />
        </mxCell>
        <mxCell id="22PM520ylwlOcXzsM1pa-20" style="edgeStyle=orthogonalEdgeStyle;rounded=0;orthogonalLoop=1;jettySize=auto;html=1;exitX=1;exitY=0.5;exitDx=0;exitDy=0;exitPerimeter=0;entryX=1;entryY=0.5;entryDx=0;entryDy=0;entryPerimeter=0;" edge="1" parent="1" source="22PM520ylwlOcXzsM1pa-15" target="22PM520ylwlOcXzsM1pa-17">
          <mxGeometry relative="1" as="geometry">
            <Array as="points">
              <mxPoint x="595" y="370" />
              <mxPoint x="595" y="510" />
            </Array>
          </mxGeometry>
        </mxCell>
        <mxCell id="22PM520ylwlOcXzsM1pa-21" value="Data cleansing/&lt;br style=&quot;border-color: var(--border-color);&quot;&gt;deduplication" style="ellipse;whiteSpace=wrap;html=1;" vertex="1" parent="1">
          <mxGeometry x="535" y="400" width="120" height="80" as="geometry" />
        </mxCell>
        <mxCell id="22PM520ylwlOcXzsM1pa-22" value="Significant transformations" style="ellipse;whiteSpace=wrap;html=1;" vertex="1" parent="1">
          <mxGeometry x="185" y="540" width="120" height="80" as="geometry" />
        </mxCell>
        <mxCell id="22PM520ylwlOcXzsM1pa-23" value="Additional joins made for analytics" style="ellipse;whiteSpace=wrap;html=1;" vertex="1" parent="1">
          <mxGeometry x="535" y="660" width="120" height="80" as="geometry" />
        </mxCell>
        <mxCell id="22PM520ylwlOcXzsM1pa-24" value="View data" style="shape=cylinder3;whiteSpace=wrap;html=1;boundedLbl=1;backgroundOutline=1;size=15;" vertex="1" parent="1">
          <mxGeometry x="385" y="720" width="75" height="100" as="geometry" />
        </mxCell>
        <mxCell id="22PM520ylwlOcXzsM1pa-25" value="Spark" style="text;html=1;strokeColor=none;fillColor=none;align=center;verticalAlign=middle;whiteSpace=wrap;rounded=0;" vertex="1" parent="1">
          <mxGeometry x="135" y="290" width="60" height="30" as="geometry" />
        </mxCell>
      </root>
    </mxGraphModel>
  </diagram>
</mxfile>
